<?xml version="1.0" encoding="UTF-8"?>
<svg id="Ebene_2" data-name="Ebene 2" xmlns="http://www.w3.org/2000/svg" viewBox="0 0 135.83 17.33">
  <defs>
    <style>
      .cls-1 {
        fill: #FAFAFA;
      }
    </style>
  </defs>
  <g id="Ebene_1-2" data-name="Ebene 1">
    <g>
      <path class="cls-1" d="M112.25,17.08h3.29s0-16.79,0-16.79h-3.29V17.08Zm19.07-3.44V.28h-3.29V17.08h7.81v-3.44h-4.51ZM34.02,0c-.86,0-1.69,.35-2.47,1.05-.79,.7-1.4,1.73-1.83,3.08-.45,1.48-.67,3.03-.64,4.58,0,2.45,.45,4.5,1.34,6.15,.89,1.64,2.16,2.47,3.79,2.46,1.57,0,2.85-.79,3.84-2.38s1.48-3.71,1.48-6.37c0-2.66-.49-4.75-1.47-6.28-.98-1.53-2.32-2.3-4.02-2.3m1.66,12.36c-.36,.94-.83,1.41-1.42,1.41s-1.06-.46-1.4-1.37c-.34-.91-.51-2.16-.51-3.76s.18-2.81,.52-3.72c.35-.91,.85-1.36,1.51-1.36,.5,0,.93,.44,1.29,1.31s.54,2.12,.54,3.74c0,1.57-.18,2.82-.53,3.76M42.82,1.21c-.84,.8-1.46,1.88-1.86,3.23-.41,1.39-.61,2.83-.6,4.28,0,2.45,.47,4.49,1.4,6.14,.93,1.64,2.19,2.46,3.77,2.46,.73,0,1.5-.23,2.32-.68v-3.16c-.57,.2-1.17,.3-1.77,.29-.73-.03-1.32-.45-1.76-1.34-.44-.89-.66-2.08-.66-3.55,0-1.73,.22-3.04,.66-3.96,.44-.91,1.04-1.36,1.81-1.36,.59,0,1.17,.09,1.71,.31V.62c-.65-.38-1.39-.6-2.15-.62-1.09,0-2.13,.44-2.88,1.21M15.05,11.62c0,.81-.1,1.42-.32,1.82-.16,.38-.54,.62-.95,.61-.41,0-.71-.22-.91-.67-.2-.45-.3-1.11-.3-1.99V.28h-3.29V11.84c0,1.81,.39,3.18,1.18,4.1,.78,.92,1.88,1.38,3.29,1.38,1.46,0,2.59-.48,3.4-1.43,.81-.95,1.2-2.3,1.2-4.05V.28h-3.29V11.62ZM0,17.08H8.01v-3.44H3.29v-3.58s4.43,0,4.43,0v-3.27H3.29V3.68h4.72V.28H0V17.08ZM25.45,8.86c1.01-.43,1.76-1.03,2.27-1.78,.5-.75,.76-1.66,.76-2.73,0-1.3-.35-2.3-1.06-3.01-.71-.71-1.64-1.06-2.78-1.06h-5.06V17.08h3.29v-6.9h.3c.41-.02,.8,.19,1,.54,.22,.36,.37,.93,.47,1.72l.55,4.64h3.58l-.96-5.33c-.3-1.69-1.08-2.65-2.34-2.89m-.68-2.26c-.28,.37-.73,.57-1.19,.54h-.73V3.55s.88,0,.88,0c.48,0,.84,.14,1.08,.42,.24,.28,.36,.7,.36,1.26,.02,.49-.12,.97-.41,1.37m75.33,2.26c1-.44,1.76-1.03,2.26-1.78,.5-.75,.75-1.65,.76-2.73,0-1.3-.36-2.3-1.06-3.01-.71-.71-1.63-1.06-2.77-1.06h-5.07V17.08h3.3v-6.9h.3c.41-.02,.8,.19,1,.54,.22,.36,.38,.93,.47,1.72l.55,4.64h3.58l-.96-5.33c-.3-1.69-1.08-2.65-2.34-2.89m-.68-2.26c-.28,.37-.72,.57-1.18,.54h-.73V3.55h.88c.48,0,.84,.14,1.08,.42,.24,.28,.36,.7,.36,1.26,.02,.49-.12,.97-.41,1.37m-14.52,10.47h8.01v-3.44h-4.72v-3.58h4.43v-3.27h-4.43V3.68h4.72V.28h-8.01V17.08ZM120.15,.28l-3.66,16.8h3.32l.53-3.35h2.67l.49,3.35h3.61L123.4,.28h-3.25Zm.64,10.45l.91-5.86,.86,5.87h-1.77ZM53.51,0c-.86,0-1.68,.35-2.47,1.05-.79,.7-1.4,1.73-1.83,3.08-.45,1.48-.67,3.03-.65,4.58,0,2.45,.45,4.5,1.34,6.15,.89,1.64,2.16,2.47,3.79,2.46,1.57,0,2.85-.79,3.84-2.38,.99-1.59,1.48-3.71,1.48-6.37,0-2.66-.49-4.75-1.47-6.28-.98-1.53-2.32-2.3-4.02-2.3m1.67,12.36c-.36,.94-.83,1.41-1.42,1.41s-1.06-.46-1.4-1.37c-.34-.91-.51-2.16-.51-3.76s.17-2.81,.52-3.72,.85-1.36,1.51-1.36c.5,0,.93,.44,1.29,1.31s.54,2.12,.54,3.74-.18,2.82-.53,3.76m22.85-5.66l-1.95-6.41h-3.6V17.08h3.21v-6.29c0-1.71-.06-3.33-.17-4.85h.25c.22,1.13,.5,2.25,.83,3.35l1.23,4.23h.39l1.23-4.23c.34-1.1,.61-2.22,.83-3.35h.24c-.11,1.64-.16,3.26-.16,4.85v6.29h3.21V.28h-3.6l-1.96,6.41Zm-12.5,0l-1.95-6.41h-3.6V17.08h3.21v-6.29c0-1.71-.06-3.33-.17-4.85h.25c.22,1.13,.5,2.25,.83,3.35l1.23,4.23h.39l1.23-4.23c.34-1.1,.62-2.22,.83-3.35h.24c-.11,1.64-.16,3.26-.16,4.85v6.29h3.21V.28h-3.6l-1.96,6.41Z"/>
      <path class="cls-1" d="M106.19,1.21c-.84,.8-1.46,1.88-1.86,3.23-.41,1.39-.61,2.83-.6,4.28,0,2.45,.47,4.49,1.4,6.13,.93,1.64,2.19,2.46,3.77,2.46,.82-.02,1.62-.26,2.32-.68v-3.16c-.57,.2-1.17,.3-1.77,.28-.73-.03-1.31-.44-1.76-1.34-.44-.89-.66-2.08-.66-3.55,0-1.73,.22-3.04,.66-3.96,.44-.91,1.04-1.36,1.81-1.36,.59,0,1.17,.09,1.71,.31V.62c-.65-.38-1.39-.6-2.15-.62-1.08,0-2.12,.44-2.88,1.21"/>
    </g>
  </g>
</svg>