<svg xmlns="http://www.w3.org/2000/svg" xmlns:xlink="http://www.w3.org/1999/xlink" width="89" height="15.086" viewBox="0 0 89 15.086">
  <defs>
    <clipPath id="clip-path">
      <rect id="Rectangle_67" data-name="Rectangle 67" width="89" height="15.086" transform="translate(0 0)" fill="none"/>
    </clipPath>
  </defs>
  <g id="Group_7" data-name="Group 7" transform="translate(0 0)">
    <g id="Group_6" data-name="Group 6" transform="translate(0 0)" clip-path="url(#clip-path)">
      <path id="Path_3" data-name="Path 3" d="M196.855,0H199.3a.385.385,0,0,1,.317.167l3.513,5.108L206.637.169A.385.385,0,0,1,206.954,0h2.46a.385.385,0,0,1,.317.6L199.893,14.92a.384.384,0,0,1-.317.167h-2.46a.385.385,0,0,1-.317-.6l4.639-6.75-4.9-7.129a.385.385,0,0,1,.317-.6M206.5,10.191l2.945,4.293a.385.385,0,0,1-.317.6h-2.451a.384.384,0,0,1-.317-.167l-1.56-2.269Z" transform="translate(-143.104 -0.001)" fill="#FAFAFA"/>
      <path id="Path_4" data-name="Path 4" d="M0,12.093V14.73q0-1.483,0-2.637ZM0,.385V2.554a.385.385,0,0,0,.385.385H9.206a.385.385,0,0,0,.315-.164L11.045.606A.385.385,0,0,0,10.73,0H.385A.385.385,0,0,0,0,.385" transform="translate(0 0)" fill="#FAFAFA"/>
      <path id="Path_5" data-name="Path 5" d="M11.086,25.069H3.39v3.164h7.7a.385.385,0,0,1,.385.385v2.224a.385.385,0,0,1-.385.385H.385A.385.385,0,0,1,0,30.842v-8.3a.385.385,0,0,1,.385-.385h10.7a.385.385,0,0,1,.385.385v2.139a.385.385,0,0,1-.385.385" transform="translate(0 -16.141)" fill="#FAFAFA"/>
      <path id="Path_6" data-name="Path 6" d="M75.375,4.906l-.012,9.8a.385.385,0,0,1-.385.385H72.363a.385.385,0,0,1-.385-.385V.385A.385.385,0,0,1,72.363,0h2.8a.384.384,0,0,1,.316.165l4.073,5.841L83.643.164A.386.386,0,0,1,83.959,0h2.8a.385.385,0,0,1,.385.385l0,14.316a.385.385,0,0,1-.385.385h-2.62a.385.385,0,0,1-.385-.385V4.892l-3.879,5.591a.385.385,0,0,1-.632,0Z" transform="translate(-52.427 0)" fill="#FAFAFA"/>
      <path id="Path_7" data-name="Path 7" d="M156.858.006l2.62,0a.385.385,0,0,1,.385.385V14.705a.385.385,0,0,1-.385.385h-2.62a.385.385,0,0,1-.385-.385V.391a.385.385,0,0,1,.385-.385" transform="translate(-113.971 -0.004)" fill="#FAFAFA"/>
      <path id="Path_8" data-name="Path 8" d="M270.488,14.55C271.541,12.086,275.9,1.9,276.613.232A.383.383,0,0,1,276.967,0h2.582a.383.383,0,0,1,.354.233c.71,1.673,5.029,11.861,6.061,14.319a.385.385,0,0,1-.355.534h-2.667a.385.385,0,0,1-.356-.238L278.194,4.209,273.8,14.848a.385.385,0,0,1-.356.238h-2.6a.385.385,0,0,1-.354-.536" transform="translate(-196.994 0)" fill="#FAFAFA"/>
    </g>
  </g>
</svg>
