<svg xmlns="http://www.w3.org/2000/svg" id="brxe-tguryj" class="brxe-svg" viewBox="0 0 914.71 207.82"><defs><style>.cls-1{fill:#FAFAFA}</style></defs><g id="Layer_1-2"><path d="M59.98 166.54c-6.54 0-12.76-.99-18.67-2.98-5.91-1.98-11.34-4.79-16.28-8.42v40.27c0 3.55-1.22 6.5-3.65 8.87-2.43 2.36-5.41 3.54-8.93 3.54s-6.48-1.18-8.86-3.54c-2.39-2.37-3.58-5.32-3.58-8.87V58.13c0-3.55 1.19-6.5 3.58-8.87 2.39-2.36 5.34-3.55 8.86-3.55 1.59 0 3.12.3 4.59.89 1.47.59 2.77 1.39 3.9 2.41 1.13 1.01 2.05 2.22 2.77 3.61.71 1.39 1.15 2.89 1.32 4.5 4.94-3.55 10.37-6.33 16.28-8.36s12.13-3.04 18.67-3.04c8.3 0 16.07 1.58 23.32 4.75s13.58 7.49 18.99 12.98c5.41 5.49 9.68 11.88 12.82 19.19 3.14 7.3 4.72 15.13 4.72 23.49s-1.57 16.19-4.72 23.49c-3.14 7.3-7.42 13.7-12.82 19.19-5.41 5.49-11.74 9.81-18.99 12.98-7.25 3.17-15.03 4.75-23.32 4.75Zm-34.83-60.41c0 4.81.92 9.35 2.77 13.61 1.84 4.26 4.34 7.98 7.48 11.14 3.14 3.17 6.83 5.68 11.06 7.54 4.23 1.86 8.74 2.79 13.52 2.79s9.41-.93 13.64-2.79c4.23-1.86 7.92-4.37 11.06-7.54 3.14-3.17 5.61-6.88 7.42-11.14 1.8-4.26 2.7-8.8 2.7-13.61s-.9-9.45-2.7-13.68c-1.8-4.22-4.28-7.91-7.42-11.08-3.14-3.17-6.83-5.65-11.06-7.47-4.23-1.81-8.78-2.72-13.64-2.72s-9.29.91-13.52 2.72c-4.23 1.82-7.92 4.31-11.06 7.47-3.14 3.17-5.64 6.86-7.48 11.08-1.84 4.22-2.77 8.78-2.77 13.68ZM153.39 117.53c1.01 3.55 2.53 6.84 4.59 9.88 2.05 3.04 4.51 5.66 7.36 7.85a33.61 33.61 0 0 0 9.49 5.13c3.48 1.22 7.15 1.84 11 1.84 5.36 0 9.85-.82 13.45-2.47 3.6-1.65 6.62-3.82 9.05-6.52 2.18-1.69 4.32-2.68 6.41-2.98 2.09-.29 4.11-.1 6.04.57 1.34.42 2.52 1.12 3.52 2.09 1.01.97 1.84 2.05 2.52 3.23 1.59 2.45 2.28 5.21 2.07 8.29-.21 3.08-1.78 5.85-4.72 8.29-1.93 1.86-4.11 3.61-6.54 5.26-2.43 1.65-5.22 3.1-8.36 4.37s-6.64 2.26-10.5 2.98c-3.86.72-8.17 1.08-12.95 1.08-8.3 0-16.09-1.56-23.39-4.69-7.29-3.12-13.66-7.41-19.11-12.85-5.45-5.45-9.77-11.84-12.95-19.19-3.19-7.35-4.78-15.2-4.78-23.55s1.59-16.21 4.78-23.55c3.18-7.35 7.5-13.74 12.95-19.19 5.45-5.45 11.82-9.75 19.11-12.92 7.29-3.17 15.09-4.75 23.39-4.75s15.95 1.56 23.2 4.69c7.25 3.12 13.6 7.39 19.05 12.79 5.45 5.4 9.79 11.74 13.01 19 3.23 7.26 4.88 15.03 4.97 23.3 0 3.55-1.15 6.44-3.46 8.67-2.31 2.24-5.26 3.36-8.86 3.36h-80.34Zm66.89-21.02c-.92-3.88-2.41-7.45-4.46-10.7a33.53 33.53 0 0 0-7.54-8.42c-2.98-2.36-6.35-4.22-10.12-5.57-3.77-1.35-7.75-2.03-11.95-2.03s-8.15.68-11.88 2.03c-3.73 1.35-7.06 3.23-10 5.64a34.393 34.393 0 0 0-7.42 8.48 33.918 33.918 0 0 0-4.28 10.57h67.65ZM279.06 110.25c-4.74-2.07-8.97-4.47-12.7-7.22-3.73-2.74-6.71-5.97-8.93-9.69-2.22-3.71-3.33-8.1-3.33-13.17 0-5.32 1.15-10.13 3.46-14.44 2.3-4.31 5.36-7.96 9.18-10.95 3.81-3 8.21-5.32 13.2-6.97 4.99-1.65 10.16-2.47 15.53-2.47 3.52 0 7.12.36 10.81 1.08 3.69.72 7.21 1.78 10.56 3.18 3.35 1.4 6.37 3.16 9.05 5.29 2.68 2.12 4.73 4.63 6.16 7.51 1.17 2.46 1.59 4.77 1.26 6.93-.34 2.16-1.22 3.99-2.64 5.51-1.51 1.69-3.4 2.85-5.66 3.48-2.26.63-4.48.44-6.66-.57-1.76-1.27-3.44-2.51-5.03-3.74-1.59-1.22-3.21-2.3-4.84-3.23-1.63-.93-3.35-1.69-5.16-2.28-1.8-.59-3.84-.89-6.1-.89-5.11 0-9.39.97-12.82 2.91-3.44 1.94-5.16 4.94-5.16 8.99 0 2.03.54 3.8 1.63 5.32 1.09 1.52 2.58 2.87 4.46 4.05 1.89 1.18 4.13 2.26 6.73 3.23 2.6.97 5.45 1.92 8.55 2.85 5.03 1.6 9.81 3.34 14.33 5.19 4.53 1.86 8.53 4.14 12.01 6.84 3.48 2.7 6.24 5.95 8.3 9.75 2.05 3.8 3.08 8.4 3.08 13.8 0 5.07-1.07 9.77-3.21 14.12-2.14 4.35-5.09 8.13-8.86 11.33-3.77 3.21-8.24 5.74-13.39 7.6s-10.75 2.79-16.79 2.79c-3.94 0-8.03-.4-12.26-1.21-4.23-.81-8.3-2.08-12.2-3.82s-7.46-3.97-10.69-6.69c-3.23-2.72-5.85-5.98-7.86-9.81-1.34-2.45-1.99-4.75-1.95-6.91.04-2.15.54-4.03 1.51-5.64.96-1.6 2.26-2.89 3.9-3.86 1.63-.97 3.46-1.52 5.47-1.65 2.01-.13 4.06.27 6.16 1.2 2.09.93 4.02 2.49 5.78 4.69 2.68 3.97 5.72 6.86 9.12 8.67 3.4 1.82 7.69 2.72 12.89 2.72 2.26 0 4.48-.29 6.66-.89 2.18-.59 4.13-1.41 5.85-2.47 1.72-1.05 3.08-2.36 4.09-3.93 1.01-1.56 1.51-3.36 1.51-5.38 0-2.45-.67-4.52-2.01-6.21-1.34-1.69-3.02-3.1-5.03-4.24-2.01-1.14-4.21-2.09-6.6-2.85s-4.63-1.48-6.73-2.15c-5.03-1.77-9.91-3.69-14.65-5.76ZM412.42 40.29c6.83 0 12.99 1.03 18.46 3.1 5.47 2.07 10.17 4.43 14.1 7.1 3.93 2.67 6.96 5.34 9.1 8.01 2.14 2.67 3.2 4.69 3.2 6.07 0 1.9-.77 3.53-2.31 4.91-1.54 1.38-3.25 2.07-5.13 2.07-2.22 0-4.1-.77-5.64-2.32-4.28-3.78-9.15-6.84-14.62-9.17-5.47-2.32-11.37-3.49-17.69-3.49s-12.27 1.21-17.82 3.62c-5.56 2.41-10.43 5.73-14.62 9.94-4.19 4.22-7.48 9.17-9.87 14.85-2.4 5.68-3.59 11.71-3.59 18.08s1.19 12.36 3.59 17.95c2.39 5.6 5.68 10.5 9.87 14.72 4.19 4.22 9.06 7.53 14.62 9.94 5.55 2.41 11.49 3.62 17.82 3.62s12.22-1.16 17.69-3.49a47.717 47.717 0 0 0 14.62-9.68c1.54-1.55 3.42-2.32 5.64-2.32 2.05 0 3.89.73 5.51 2.2 1.62 1.46 2.43 3.32 2.43 5.55 0 1.38-.98 3.4-2.95 6.07-1.97 2.67-4.92 5.29-8.85 7.88-3.93 2.58-8.76 4.82-14.49 6.71-5.73 1.9-12.27 2.84-19.61 2.84-8.55 0-16.54-1.55-23.97-4.65-7.44-3.1-13.97-7.4-19.61-12.91-5.64-5.51-10.09-12.05-13.33-19.63-3.25-7.57-4.87-15.84-4.87-24.79s1.58-16.66 4.74-24.15c3.16-7.49 7.52-14.03 13.08-19.63 5.55-5.59 12.13-10.07 19.74-13.43 7.6-3.36 15.85-5.21 24.74-5.55ZM471.14 8.01c0-2.24.77-4.13 2.31-5.68s3.42-2.32 5.64-2.32 4.1.77 5.64 2.32 2.31 3.45 2.31 5.68v43.38c3.93-3.44 8.46-6.2 13.59-8.26s10.6-3.1 16.41-3.1c6.32 0 12.31 1.21 17.95 3.62 5.64 2.41 10.55 5.73 14.74 9.94 4.19 4.22 7.48 9.17 9.87 14.85 2.39 5.68 3.59 11.71 3.59 18.08v70.5c0 2.24-.77 4.13-2.31 5.68s-3.42 2.32-5.64 2.32-4.1-.78-5.64-2.32c-1.54-1.55-2.31-3.44-2.31-5.68V86.51c0-4.13-.81-8.05-2.44-11.75-1.63-3.7-3.81-6.93-6.54-9.68-2.74-2.75-5.94-4.91-9.62-6.46-3.68-1.55-7.56-2.32-11.67-2.32s-7.95.77-11.54 2.32c-3.59 1.55-6.75 3.62-9.49 6.2s-4.87 5.64-6.41 9.17c-1.54 3.53-2.4 7.27-2.56 11.23v71.79c0 2.41-.73 4.35-2.18 5.81-1.45 1.46-3.38 2.2-5.77 2.2-2.22 0-4.06-.78-5.51-2.32-1.45-1.55-2.27-3.44-2.44-5.68V8.01ZM592.67 110.27c.85 5.51 2.65 10.63 5.38 15.37 2.73 4.74 6.11 8.82 10.13 12.27 4.01 3.45 8.59 6.16 13.72 8.13 5.13 1.98 10.51 2.97 16.15 2.97 6.32 0 12.22-1.16 17.69-3.49a47.717 47.717 0 0 0 14.62-9.68c1.54-1.55 3.42-2.32 5.64-2.32s4.1.77 5.64 2.32 2.31 3.45 2.31 5.68-.77 4.13-2.31 5.68c-5.64 6.37-12.01 10.89-19.1 13.56-7.1 2.67-15.26 4-24.49 4-8.55 0-16.54-1.55-23.97-4.65-7.44-3.1-13.97-7.4-19.61-12.91-5.64-5.51-10.09-12.05-13.33-19.63-3.25-7.57-4.87-15.84-4.87-24.79s1.58-16.66 4.74-24.15c3.16-7.49 7.52-14.03 13.08-19.63 5.55-5.59 12.14-10.07 19.74-13.43 7.6-3.36 15.85-5.21 24.74-5.55 8.03 0 15.77 1.64 23.2 4.91 7.44 3.27 13.97 7.75 19.61 13.43 5.64 5.68 10.17 12.27 13.59 19.76 3.42 7.49 5.13 15.54 5.13 24.15 0 2.58-.86 4.56-2.56 5.94-1.71 1.38-3.5 2.07-5.38 2.07h-99.48Zm90.77-16.01a46.997 46.997 0 0 0-5.64-14.98c-2.74-4.65-6.11-8.65-10.13-12.01-4.02-3.36-8.55-6.02-13.59-8.01-5.04-1.98-10.38-2.97-16.03-2.97s-10.99.99-16.03 2.97c-5.04 1.98-9.58 4.65-13.59 8.01-4.02 3.36-7.35 7.36-10 12.01a48.363 48.363 0 0 0-5.51 14.98h90.51ZM773.95 40.29c6.83 0 12.99 1.03 18.46 3.1 5.47 2.07 10.17 4.43 14.1 7.1 3.93 2.67 6.96 5.34 9.1 8.01 2.14 2.67 3.2 4.69 3.2 6.07 0 1.9-.77 3.53-2.31 4.91-1.54 1.38-3.25 2.07-5.13 2.07-2.22 0-4.1-.77-5.64-2.32-4.27-3.78-9.15-6.84-14.61-9.17-5.47-2.32-11.37-3.49-17.69-3.49s-12.27 1.21-17.82 3.62c-5.56 2.41-10.43 5.73-14.61 9.94-4.19 4.22-7.48 9.17-9.87 14.85-2.4 5.68-3.59 11.71-3.59 18.08s1.19 12.36 3.59 17.95c2.39 5.6 5.68 10.5 9.87 14.72 4.19 4.22 9.06 7.53 14.61 9.94 5.55 2.41 11.49 3.62 17.82 3.62s12.22-1.16 17.69-3.49a47.553 47.553 0 0 0 14.61-9.68c1.54-1.55 3.42-2.32 5.64-2.32 2.05 0 3.89.73 5.51 2.2 1.62 1.46 2.44 3.32 2.44 5.55 0 1.38-.99 3.4-2.95 6.07-1.97 2.67-4.92 5.29-8.85 7.88-3.93 2.58-8.76 4.82-14.49 6.71-5.73 1.9-12.27 2.84-19.61 2.84-8.55 0-16.54-1.55-23.97-4.65-7.44-3.1-13.97-7.4-19.61-12.91-5.64-5.51-10.09-12.05-13.33-19.63-3.25-7.57-4.87-15.84-4.87-24.79s1.58-16.66 4.74-24.15c3.16-7.49 7.52-14.03 13.08-19.63 5.55-5.59 12.14-10.07 19.74-13.43 7.6-3.36 15.85-5.21 24.74-5.55ZM832.41 8.26c0-2.24.77-4.13 2.31-5.68 1.54-1.55 3.42-2.32 5.64-2.32s4.1.77 5.64 2.32c1.54 1.55 2.31 3.45 2.31 5.68V94l51.79-51.91c1.54-1.55 3.42-2.32 5.64-2.32s4.1.77 5.64 2.32c1.54 1.55 2.31 3.45 2.31 5.68s-.77 4.13-2.31 5.68L874.46 89.6l39.23 63.53c.68 1.21 1.03 2.5 1.03 3.87 0 1.9-.73 3.75-2.18 5.55-1.45 1.81-3.29 2.71-5.51 2.71-2.91 0-5.22-1.38-6.92-4.13l-37.18-59.91-14.61 14.72V157c0 2.24-.77 4.13-2.31 5.68-1.54 1.55-3.42 2.32-5.64 2.32s-4.1-.78-5.64-2.32-2.31-3.44-2.31-5.68V8.26Z" class="cls-1"/></g></svg>